# xmcd
#
# Track frame offsets:
# 150
# 21167
# 43512
# 62317
# 91615
# 113875
# 132610
# 147082
# 164972
# 187622
# 208065
#
# Disc length: 3035 seconds
#
# Revision: 0
# Processed by: cddbd v1.5.1PL0 Copyright (c) Steve Scherf et al.
# Submitted via: Axialis_AX_CDPlayer 2.6
#
DISCID=930bd90b
DTITLE=FAHRETTIN KARAARDIC - DAGLARA DUSUNCE AYAZ
DYEAR=1900
DGENRE=
TTITLE0=KADERIM KADER OLSAYDI
TTITLE1=DAGLARA DUSUNCE AYAZ
TTITLE2=CINGIRDAKLI YILAN
TTITLE3=BU ZALIM GURBET
TTITLE4=BENIM GURURUM
TTITLE5=YOLUM DUSTU MALATYA ' YA
TTITLE6=SEVDIGIM
TTITLE7=SABAH OLDU
TTITLE8=SURUNUP GIDIYORUM
TTITLE9=INSANLAR KENDINI BILSEYDI
TTITLE10=KOPRUDEN GECTI GELIN
EXTD=TRACK1:KADERIM KADER OLSAYDI    TRACK2:DAGLARA DUSUNCE AYAZ  TRACK3:CIN
EXTD=GIRDAKLI \nYILAN                TRACK4:BU ZALIM GURBET              TRA
EXTD=CK5:BENIM \nGURURUM                   TRACK6:YOLUM DUSTU MALATYA '  YA 
EXTD=TRACK7:SEVDIGIM \n                                TRACK8:SABAH OLDU   
EXTD=      TRACK9:SURUNUP \nGIDIYORUM          TRACK10:INSANLAR KE
EXTD=NDINI BILSEYDI  TRACK11:KOPRUDEN \nGECTI GELIN      
EXTT0=
EXTT1=
EXTT2=
EXTT3=
EXTT4=
EXTT5=
EXTT6=
EXTT7=
EXTT8=
EXTT9=
EXTT10=
PLAYORDER=
